<?xml version="1.0" encoding="UTF-8" standalone="no"?>
<!-- Created with Inkscape (http://www.inkscape.org/) -->

<svg
   width="135.71103mm"
   height="134.05058mm"
   viewBox="0 0 135.71103 134.05058"
   version="1.1"
   id="svg5"
   xmlns="http://www.w3.org/2000/svg"
   xmlns:svg="http://www.w3.org/2000/svg">
  <defs
     id="defs2" />
  <g
     id="layer1"
     transform="translate(-13.83218,-40.447248)">
    <path
       style="fill:#440055;stroke-width:0.264583"
       d="m 93.073599,174.45965 c -0.26705,-0.43211 -3.83268,-22.13712 -3.8339,-23.33809 -0.002,-1.46011 0.13956,-1.56935 2.64456,-2.04819 3.9868,-0.7621 11.328211,-4.13181 15.171951,-6.96393 1.18704,-0.87463 3.48797,-2.89643 5.11318,-4.49289 2.75178,-2.70309 2.99142,-2.87708 3.48574,-2.53084 0.98966,0.69318 16.02678,13.04301 17.19941,14.12569 0.98352,0.90807 1.13338,1.17562 0.96161,1.71679 -0.32538,1.02518 -7.6685,8.16382 -10.75628,10.45676 -7.09504,5.26866 -15.37316,9.53529 -22.31207,11.49985 -3.348611,0.94806 -7.531111,1.80637 -7.674201,1.57485 z m -27.779965,-0.89891 c -9.935864,-2.572 -18.549594,-6.97842 -27.041094,-13.8331 -2.30439,-1.8602 -8.80994,-8.3636 -8.80994,-8.80703 0,-0.26447 2.17255,-2.14573 7.80521,-6.75865 8.33967,-6.82987 11.25117,-9.12316 11.57946,-9.12072 0.17973,0.001 1.39834,1.09151 2.70803,2.42263 5.71664,5.81017 12.18218,9.44563 20.637499,11.60409 l 2.91042,0.74297 -0.088,1.01446 c -0.0484,0.55796 -0.50581,3.45524 -1.0165,6.43842 -0.5107,2.98318 -1.36793,8.04333 -1.90496,11.24479 l -0.97643,5.82083 -1.18208,0.0608 c -0.67527,0.0348 -2.65674,-0.32089 -4.621645,-0.82953 z m 7.277005,-29.16242 c -4.73106,-1.23096 -9.337039,-3.36424 -13.211449,-6.11893 -1.98977,-1.41473 -6.89785,-6.07332 -6.89785,-6.54722 0,-0.34963 5.64578,-4.89544 6.08001,-4.89544 0.14969,0 1.30457,0.95882 2.56639,2.13071 2.61245,2.42626 5.785239,4.62572 8.291559,5.74795 1.82852,0.81872 5.38847,2.02677 6.8084,2.31038 1.02216,0.20416 1.04738,0.4163 0.4714,3.96617 -0.45423,2.79947 -0.86852,4.10893 -1.29104,4.08058 -0.16766,-0.0112 -1.4355,-0.31464 -2.81742,-0.6742 z m 15.50663,0.47775 c -0.18096,-0.29279 -1.22009,-6.30676 -1.22009,-7.06124 0,-0.51397 0.24327,-0.65603 1.78593,-1.04291 5.23707,-1.31339 9.94074,-3.90299 14.159271,-7.79534 1.27554,-1.17692 2.43028,-2.13985 2.56609,-2.13985 0.2869,0 5.41982,4.04768 5.69258,4.48901 0.2634,0.42619 -0.44242,1.38964 -2.46022,3.35826 -5.3371,5.207 -11.056391,8.18369 -19.676921,10.24113 -0.39126,0.0934 -0.77225,0.0713 -0.84664,-0.0491 z M 17.45771,129.681 c -1.05147,-2.98183 -1.96065,-6.33997 -2.82909,-10.44963 -0.78373,-3.70876 -0.79644,-3.89512 -0.79644,-11.67937 v -7.91047 l 0.92451,-4.32792 c 1.61495,-7.56011 2.98621,-11.60396 3.93489,-11.60396 0.2031,0 1.18711,0.31223 2.1867,0.69384 0.99959,0.3816 6.03078,2.27918 11.18042,4.21683 5.14965,1.93765 9.46221,3.62223 9.58349,3.7435 0.12127,0.12128 0.0385,0.81331 -0.18396,1.53785 -2.71919,8.85649 -2.78527,18.48709 -0.18193,26.51104 0.38811,1.19622 0.6346,2.24599 0.54776,2.33283 -0.0868,0.0868 -2.58077,1.03135 -5.54207,2.09892 -2.9613,1.06756 -8.22278,3.02412 -11.69218,4.3479 -3.4694,1.32378 -6.34123,2.40687 -6.38184,2.40687 -0.0406,0 -0.37823,-0.8632 -0.75026,-1.91823 z m 121.91926,-0.49961 c -3.05594,-1.16863 -8.11174,-3.06883 -11.23512,-4.22265 -3.12338,-1.15384 -5.77468,-2.19368 -5.89178,-2.31078 -0.1171,-0.1171 0.13287,-1.33621 0.55548,-2.70913 1.26991,-4.12548 1.70251,-7.25282 1.6993,-12.28439 -0.003,-4.95694 -0.40538,-8.0313 -1.55809,-11.9094 -1.03616,-3.48599 -1.10143,-3.28307 1.34896,-4.19381 1.16416,-0.43269 5.68854,-2.15175 10.05416,-3.82013 4.36563,-1.66838 8.63155,-3.24767 9.47984,-3.50953 l 1.54233,-0.47611 0.34966,0.84199 c 1.42525,3.43211 3.07187,10.63284 3.59946,15.74051 0.45372,4.39248 0.17751,14.14026 -0.51497,18.17439 -0.94607,5.51143 -2.95196,12.55066 -3.62948,12.73689 -0.13393,0.0368 -2.74382,-0.88921 -5.79975,-2.05785 z m -63.455851,1.49471 c -1.88738,-0.5257 -4.10245,-1.45545 -5.6004,-2.35069 -1.99237,-1.19071 -5.540825,-4.00196 -6.069099,-4.8082 l -0.46664,-0.71217 1.539804,-1.55603 c 0.846875,-0.85582 1.636935,-1.55603 1.755665,-1.55603 0.11874,0 1.1345,0.78432 2.25724,1.74295 2.48732,2.12371 4.79698,3.45518 7.59761,4.37986 l 2.11667,0.69886 -0.087,0.95606 c -0.0479,0.52584 -0.22644,1.52104 -0.39688,2.21156 -0.35612,1.44281 -0.6453,1.55138 -2.64699,0.99383 z m 9.62048,-1.02586 c -0.16781,-0.80836 -0.26788,-1.92092 -0.22237,-2.47235 0.0696,-0.84372 0.18757,-1.0158 0.7442,-1.08578 2.31157,-0.2906 5.88932,-2.18049 8.60036,-4.543 1.16339,-1.01383 2.1883,-1.84621 2.27757,-1.84973 0.0893,-0.004 0.90836,0.67977 1.8202,1.51843 l 1.657881,1.52483 -2.438441,2.32049 c -1.85833,1.76844 -2.99162,2.59831 -4.76369,3.4883 -2.41798,1.21438 -4.74297,2.08204 -6.40234,2.38927 l -0.96825,0.17927 z m -9.53844,-5.81526 c -0.94924,-0.33513 -2.37799,-1.02881 -3.175,-1.54151 -1.78134,-1.14589 -4.22724,-3.32743 -4.22724,-3.77034 0,-0.31255 2.76052,-2.67773 6.75855,-5.79065 l 1.86375,-1.45114 1.01571,0.75733 c 0.55864,0.41653 1.41659,0.88964 1.90656,1.05134 1.09476,0.3613 1.09669,0.40392 0.22899,5.04626 -1.24807,6.67735 -1.13843,6.31991 -1.93658,6.31363 -0.38987,-0.003 -1.4855,-0.27978 -2.43474,-0.61492 z m 8.61519,0.37231 c -0.15902,-0.25731 -1.37615,-7.91048 -1.51742,-9.54139 -0.0707,-0.81681 0.0224,-0.9773 0.78968,-1.36052 0.47845,-0.23897 1.3391,-0.74498 1.91256,-1.12448 0.57346,-0.3795 1.13451,-0.6893 1.24677,-0.68845 0.30154,0.002 7.5239,6.13956 7.84887,6.66964 0.43346,0.70706 -0.48079,1.70824 -3.27126,3.58228 -2.98877,2.00722 -6.52326,3.24918 -7.0092,2.46292 z M 46.0414,120.10886 c -0.22533,-0.47251 -0.74791,-2.15836 -1.16131,-3.74635 -0.72016,-2.76633 -0.75166,-3.14206 -0.75237,-8.97265 -8e-4,-5.54197 0.0549,-6.29807 0.6223,-8.46667 0.34268,-1.30969 0.85866,-2.93588 1.14662,-3.61376 l 0.52357,-1.23251 2.16067,0.73197 c 1.18837,0.40258 2.79652,1.00627 3.57367,1.34153 1.63302,0.70449 1.62668,0.655 0.55883,4.36027 -0.53056,1.84099 -0.61132,2.71972 -0.62011,6.74687 -0.009,4.20981 0.0574,4.90123 0.73324,7.61517 0.40884,1.64172 0.68398,3.13964 0.61143,3.3287 -0.1238,0.32263 -3.47699,1.7088 -5.89996,2.43899 -1.08511,0.32701 -1.08757,0.32613 -1.49658,-0.53156 z m 67.31268,-0.54849 c -1.65227,-0.63649 -3.06883,-1.22195 -3.14789,-1.30102 -0.0791,-0.0791 0.17026,-1.31232 0.55406,-2.74056 1.53994,-5.73054 1.4933,-11.37769 -0.13883,-16.8081 -0.29754,-0.98999 -0.47056,-1.87042 -0.38447,-1.95651 0.0861,-0.0861 1.67718,-0.73019 3.53577,-1.43135 3.91677,-1.47761 3.70784,-1.54313 4.59671,1.44152 1.16964,3.92742 1.36027,5.7715 1.22079,11.80955 -0.136,5.88773 -0.39119,7.69252 -1.50673,10.65606 -0.70488,1.87258 -0.72279,1.87383 -4.72941,0.33041 z m -53.87977,-4.36238 c -0.70866,-1.3704 -1.25478,-5.71672 -1.11409,-8.86647 0.13887,-3.10877 0.79977,-6.53226 1.34905,-6.98813 0.24043,-0.19953 0.827,-0.0875 2.08334,0.39807 2.36837,0.91529 2.43665,1.02717 1.86855,3.06124 -0.70608,2.5281 -0.63363,7.75807 0.13661,9.86161 0.667394,1.82264 0.757864,1.70394 -2.01209,2.64038 l -1.92045,0.64926 z m 42.33182,-0.0886 c -1.53399,-0.56376 -1.58678,-0.6145 -1.56637,-1.50563 0.0116,-0.50721 0.15955,-1.69611 0.32873,-2.642 0.40914,-2.28746 0.37753,-4.9569 -0.0893,-7.54062 -0.21034,-1.16417 -0.38478,-2.21222 -0.38764,-2.32901 -0.006,-0.24471 3.04393,-1.69661 3.82532,-1.82102 0.42434,-0.0676 0.61349,0.19175 1.00071,1.3719 1.13246,3.45146 1.16309,9.8046 0.0655,13.58026 -0.50884,1.75033 -0.68879,1.80052 -3.17693,0.88612 z m -36.227756,-1.73378 c -0.0789,-0.12759 -0.32225,-0.99079 -0.54087,-1.91823 -0.72325,-3.06809 -0.38009,-9.00843 0.56572,-9.79339 0.3764,-0.31238 3.698055,0.75785 8.489095,2.73518 2.1861,0.90223 2.24951,1.01384 2.12885,3.74646 l -0.0796,1.80301 -5.02708,1.82258 c -5.463335,1.98075 -5.327775,1.94147 -5.536095,1.60439 z m 27.231925,-1.60158 -4.7625,-1.80225 -0.0756,-2.38071 -0.0756,-2.38072 3.38657,-1.32441 c 4.37422,-1.71066 6.2675,-2.30048 6.76794,-2.10844 1.05339,0.40422 1.44061,7.15943 0.58333,10.17645 -0.25843,0.9095 -0.60302,1.6466 -0.76575,1.63799 -0.16272,-0.009 -2.43898,-0.82667 -5.05836,-1.81791 z m -6.67434,-8.67767 c -0.46943,-0.36257 -1.30286,-0.81295 -1.85208,-1.00084 -0.88413,-0.30246 -1.00814,-0.45324 -1.08199,-1.3156 -0.0744,-0.8688 0.71156,-6.71314 1.22819,-9.13274 0.26202,-1.22715 0.88722,-1.2979 3.44499,-0.38988 3.28884,1.16757 7.29529,4.11499 7.1319,5.24672 -0.0688,0.47646 -3.74807,3.85678 -7.09146,6.51525 l -0.92604,0.73633 z m -12.64024,-2.34786 c -1.89177,-1.53608 -3.76701,-3.04404 -4.16719,-3.35102 -0.40018,-0.30698 -0.72761,-0.69806 -0.72761,-0.86906 0,-0.40184 2.15299,-2.40705 3.78818,-3.52817 1.3908,-0.95356 5.10057,-2.41141 6.13628,-2.41141 0.75173,0 0.61251,-0.47095 1.739,5.88267 0.45754,2.58062 0.76261,4.87258 0.67794,5.09323 -0.0847,0.22065 -0.3725,0.40119 -0.63962,0.40119 -0.26712,0 -1.0489,0.35718 -1.73729,0.79375 -0.68838,0.43656 -1.33677,0.79104 -1.44086,0.78772 -0.10409,-0.003 -1.73706,-1.26282 -3.62883,-2.7989 z m -7.775415,-6.48179 c -1.901994,-1.51439 -2.022404,-1.82438 -1.14627,-2.95115 1.743495,-2.24229 6.173755,-5.06301 9.933545,-6.32462 3.16545,-1.06218 3.62552,-0.98252 4.06051,0.70312 0.18776,0.7276 0.34368,1.69827 0.34648,2.15704 0.005,0.80684 -0.0576,0.85306 -1.91312,1.41336 -2.76612,0.83528 -5.0525,2.12033 -7.53263,4.23369 -1.19615,1.01926 -2.2224,1.85319 -2.28055,1.85319 -0.0581,0 -0.71873,-0.48808 -1.467965,-1.08463 z m 29.103355,-0.6128 c -2.20196,-1.89165 -5.11686,-3.5389 -7.76805,-4.38982 -1.77799,-0.57067 -1.7859,-0.57753 -1.77946,-1.54246 0.009,-1.29411 0.48354,-3.29506 0.83336,-3.51126 0.71652,-0.44284 5.21238,1.17179 8.19239,2.94217 1.64683,0.97836 6.049031,4.82485 6.049031,5.28543 0,0.21443 -3.203021,2.92011 -3.438471,2.90457 -0.0734,-0.005 -1.01334,-0.76472 -2.0888,-1.68863 z M 55.7345,86.13841 c -3.78523,-2.99895 -3.67407,-2.60064 -1.385,-4.96267 3.90518,-4.02963 7.57031,-6.54618 12.663919,-8.695276 2.80975,-1.18549 6.25192,-2.19578 7.92441,-2.32583 l 0.91295,-0.071 0.4695,1.98438 c 0.25823,1.0914 0.54642,2.825396 0.64044,3.853326 l 0.17093,1.86896 -1.55338,0.34619 c -5.44417,1.21329 -9.693095,3.52983 -14.698159,8.0135 -1.26328,1.13168 -2.3502,2.0576 -2.41539,2.0576 -0.0652,0 -1.29378,-0.93114 -2.73022,-2.06919 z m 47.37462,0.25118 c -4.249481,-4.0887 -9.428181,-7.01715 -14.391221,-8.13795 -1.75573,-0.3965 -1.86072,-0.46157 -1.86072,-1.15325 0,-0.913 0.96526,-6.517806 1.18323,-6.870496 0.48075,-0.77786 8.35685,1.81101 12.541561,4.12241 0.96433,0.532636 2.52724,1.512016 3.47312,2.176386 1.9814,1.3917 7.14375,6.30905 7.14375,6.80471 0,0.58907 -5.23383,4.8878 -5.92667,4.86779 -0.16007,-0.005 -1.13344,-0.81894 -2.16305,-1.8096 z M 40.50155,73.558594 c -4.46785,-3.67258 -8.81067,-7.277551 -9.65072,-8.011039 l -1.52737,-1.333617 1.08936,-1.298495 c 1.55367,-1.851938 6.24491,-6.35076 8.42249,-8.077024 8.46001,-6.706645 17.50843,-11.183034 27.384359,-13.54746 4.38017,-1.04867 4.47416,-1.056019 4.76545,-0.372631 0.31616,0.741756 3.9658,22.322846 3.9658,23.450627 0,0.96475 -0.20945,1.078521 -3.175,1.724573 -2.53914,0.553159 -7.918679,2.710916 -10.980199,4.404196 -3.20689,1.77369 -5.43705,3.48585 -8.99225,6.903606 -1.64125,1.57781 -3.02786,2.86108 -3.08134,2.85172 -0.0535,-0.009 -3.75275,-3.02187 -8.22058,-6.694456 z m 73.33207,5.490296 c -6.59994,-6.832796 -13.53114,-10.977746 -21.655851,-12.950489 -1.6427,-0.398859 -3.04326,-0.872524 -3.11236,-1.052589 -0.0691,-0.180065 0.53791,-4.358971 1.34889,-9.286459 1.87882,-11.415517 2.52817,-14.880889 2.8225,-15.062795 0.31913,-0.19723 4.37321,0.571999 6.997891,1.32779 10.87328,3.131028 21.25876,9.303374 29.35912,17.448845 2.04082,2.052191 3.88512,4.074511 4.09843,4.494048 0.38295,0.753147 0.37116,0.777592 -0.93246,1.93367 -0.72617,0.643985 -3.99922,3.363373 -7.27344,6.043093 -3.27422,2.679706 -6.8854,5.649316 -8.02485,6.599136 -1.13945,0.94981 -2.15645,1.72693 -2.26001,1.72693 -0.10356,0 -0.7191,-0.54953 -1.36786,-1.22118 z"
       id="path235" />
  </g>
</svg>
